<svg id="__AUI_SVG_SPRITE__" xmlns="http://www.w3.org/2000/svg" xmlns:xlink="http://www.w3.org/1999/xlink"><defs><style>
    .sprite-symbol-usage {display: none;}
    .sprite-symbol-usage:target {display: inline;}
  </style><symbol class="icon" viewBox="0 0 1024 1024" id="icon-anime-partition"><path d="M392.25605522 249.60252035c-22.67340933-12.28142957-45.34681868-24.56286043-68.02022801-37.0017447l-112.8946852-61.40715175c-15.27306091-8.34507397-21.57123039-21.09886761-12.91124703-36.84429 8.65998335-15.90287708 23.14577211-17.00505733 38.10392363-8.81743675 88.17437007 48.02354063 176.50619612 95.88962787 264.52311279 144.54298596 22.51595594 12.43888426 63.13914815 5.03853584 77.46748222-16.06033176 45.03191058-65.34350733 89.90636778-130.68701338 134.78082368-196.18797541 1.57454172-2.36181388 3.14908474-4.72362646 4.72362645-6.92798564 12.75379235-17.79232819 27.39703709-22.51595594 40.62319222-12.12397618 15.27306091 12.12397617 12.75379235 26.45231154 2.83417665 40.93810029-18.26469097 26.60976493-36.52938192 53.37698455-54.63661949 79.9867508-25.1926779 37.00174469-50.38535452 74.0034894-78.56966246 115.09904437H945.55023185c29.60139627 0 34.16756804 4.72362646 34.32502273 34.32502273 0.3149081 202.95850636 0.47236277 405.75955933 0.78727086 608.718067 0 28.97157882-5.19598923 34.01011466-34.7973855 34.16756804-7.7152578 0-15.587969 0.78727086-23.14577211-0.15745469-28.02685326-3.14908474-48.49590341-0.47236277-58.258067 34.16756933-8.81743675 31.17593799-42.04028053 47.07881637-71.95658361 43.92973035-34.63993083-3.62144751-57.47079485-24.09049766-66.28823289-56.3686146-5.35344394-19.52432459-14.48579005-22.20104656-32.12066354-22.04359316-121.71212193 0.78727086-243.2667905 0.47236277-364.97891244 0.15745467-14.01342727 0-22.20104656 1.25963363-26.29485684 18.26469097-8.81743675 36.52938192-38.8911958 59.67515404-72.1140396 60.3049715-34.48247743 0.62981747-64.39878179-21.88613847-74.47585217-59.83260872-4.25126368-15.90287708-11.33670531-19.52432459-25.97994875-18.73705375-18.89450843 1.10218023-37.94647025 0.47236277-56.99843207 0.15745341-20.78395823-0.47236277-29.91630436-8.97489145-29.91630436-29.2864869 0.15745469-206.26504579 0.47236277-412.68754498 0.94472554-619.11004545 0-21.4137757 8.65998335-28.49921603 32.43557164-28.49921604 97.77907898-0.15745469 195.55815794 0 293.17978221 0h20.46905146c0.62981747-1.73199641 1.25963363-3.46399282 1.88944981-5.35344392z m540.54038299 634.69801444V301.09005509H93.40792098v583.2104797h839.38851723z m-674.37648112 49.12572089H200.63425417c3.93635561 16.53269455 11.96652149 28.18430795 27.39703579 29.1290335 17.16251201 1.25963363 25.3501313-11.49415871 30.38866713-29.1290335z m510.62407864-0.1574547c5.8258067 17.63487349 13.69851789 30.54612183 31.0184846 29.2864882 15.587969-1.10218023 22.83086403-13.22615513 27.55449049-29.2864882h-58.57297509z" p-id="4668" data-spm-anchor-id="a313x.7781069.0.i2" class="selected" /><path d="M513.81072377 844.14970537H176.3863018c-32.75048101 0-37.94647025-5.19598923-37.94647024-37.94647026 0.15745469-141.07899314 0.3149081-282.15798628 0.62981746-423.39443412 0-29.75884967 6.14071479-35.89956575 35.74210977-35.89956445h677.05320439c30.07375905 0 36.21447383 5.98326139 36.37192722 35.42720297 0.47236277 141.86626401 0.78727086 283.57507461 0.94472556 425.44133732 0 30.38866713-6.29816947 36.21447383-37.63156218 36.37192854H513.81072377z m324.5131749-49.91299174V397.29459105H188.66773139v396.94212258h649.65616728z" p-id="4669" data-spm-anchor-id="a313x.7781069.0.i3" class="selected" /><path d="M516.8023538 723.85467045c-8.65998335 6.14071479-16.69014924 13.06870173-25.82249407 17.94978288-30.07375905 15.90287708-59.99006341 14.48579005-87.70200729-4.88108115-30.54612183-21.4137757-44.08718503-52.74716839-41.41046437-89.2765503 0.62981747-7.87271119 15.11560622-20.31159546 23.4606815-20.62650485 8.18762058-0.3149081 18.57959905 11.02179594 24.56286042 19.6817793 4.72362646 6.92798565 2.67672196 17.94978287 5.98326011 26.29485683 6.29816947 15.90287708 17.94978287 31.0184846 35.42720298 27.23958241 12.91124703-2.67672196 24.56286043-15.74542369 34.16756804-26.45231025 4.72362646-5.35344394 3.93635561-15.90287708 5.19599053-24.09049895 2.20435919-15.587969 11.17925063-25.03522321 26.45231153-24.72031383 13.85597259 0.3149081 22.83086403 8.81743675 24.72031384 23.93304297 1.10218023 9.60470762 1.41708833 21.57123039 7.08544033 27.86939987 9.13234613 10.23452507 22.04359317 22.51595594 33.85265996 22.98831741 10.54943316 0.3149081 23.46068019-12.59633895 31.80575547-22.67340933 5.51089861-6.61307756 5.19598923-18.42214565 6.92798693-28.02685325 2.83417665-15.27306091 11.49415871-24.56286043 27.2395824-23.46068151 15.587969 1.25963363 23.77558957 11.33670531 23.14577212 27.2395824-1.57454172 40.15082943-17.31996541 72.74385575-54.47916481 90.69363864-34.63993083 16.69014924-67.07550375 9.60470762-95.41726508-16.21778517-1.57454172-1.10218023-3.30653942-2.04690449-5.19599054-3.46399412zM793.92180426 573.64333248c0.47236277 23.77558957-18.89450843 36.84429002-36.84429001 26.60976494-48.02354063-27.39703709-95.25981169-56.21116122-142.33862678-85.18274003-12.43888426-7.7152578-15.11560622-20.31159546-7.87271249-33.06538909 7.40034843-13.06870173 20.46905015-16.53269455 32.59302632-9.60470762 48.49590341 28.02685326 96.51944533 56.84097867 144.22807787 86.28491898 5.51089861 3.62144751 8.18762058 11.96652149 10.23452509 14.95815282zM384.06843594 482.16242298c4.40871837 4.40871837 15.74542369 10.54943316 17.00505732 18.10723628 1.41708833 8.97489145-3.30653942 24.56286043-10.23452637 28.02685325-41.72537245 21.4137757-84.55292385 40.62319221-127.53792865 59.67515533-13.06870173 5.8258067-27.39703709 1.41708833-30.70357522-12.75379363-2.20435919-9.28979952 1.73199641-26.76721962 8.34507397-30.23121246 42.98500609-22.04359317 87.3870992-41.095555 131.31683084-61.09224235 1.8894511-0.78727086 4.09381029-0.62981747 11.80906811-1.73199642z" p-id="4670" data-spm-anchor-id="a313x.7781069.0.i4" class="selected" /></symbol><symbol viewBox="0 0 256 256" id="icon-animeui"><path d="M175,67.1h-7L182.08,59a4.72,4.72,0,0,0,1.7-6.41,4.63,4.63,0,0,0-6.3-1.74l0,0-28,16.24h-46L78.17,52.57a4.69,4.69,0,0,0-4.69,8.12L84.67,67.1H75A31.25,31.25,0,0,0,43.77,98.35v62.5A31.25,31.25,0,0,0,75,192.1H175a31.25,31.25,0,0,0,31.25-31.25h0V98.35A31.25,31.25,0,0,0,175,67.1Zm15.63,78.12a31.25,31.25,0,0,1-31.25,31.25H90.65A31.25,31.25,0,0,1,59.4,145.22V114A31.25,31.25,0,0,1,90.65,82.72H159.4A31.25,31.25,0,0,1,190.65,114h0Z" /><path d="M86.26,197.09c0,1.26,0,2.52-.14,3.78,0,.61-.1,1.22-.18,1.82.1-.78-.12.7-.17.95a23.25,23.25,0,0,1-.61,2.46,3.87,3.87,0,0,1-.41,1.14s.42-.85.11-.28c-.1.19-.18.38-.28.57s-.28.51-.43.76-.18.25-.25.38c-.28.46.2-.51.27-.35s-.93,1-1.06,1.09c-.36.38.88-.55.22-.18-.17.1-.36.2-.53.31-.58.37.06-.07.32-.11a3.92,3.92,0,0,0-.55.18l-.38.09c-.46.13-.78-.14.46,0-.22,0-.48,0-.71,0s-.6,0-.9,0h-.52c-.83,0-.25-.07.22.06-.25-.07-.52-.12-.78-.18-.54-.14-.33-.46.34.16a3.62,3.62,0,0,0-.48-.25c-.09-.05-.4-.32-.49-.32.28,0,.8.73.26.18l-.5-.5c-.06-.07-.12-.16-.19-.23-.43-.42.51.79.2.25s-.59-.93-.84-1.42l-.18-.37c-.35-.66.23.68.08.19s-.31-.83-.45-1.25c-.25-.8-.46-1.62-.63-2.44-.1-.48-.19-.95-.27-1.43,0-.28-.09-.57-.13-.85.09.68,0-.31-.05-.47-.28-2.48-.33-5-.41-7.47,0-1.69-.12-3.39,0-5.09,0-.28,0-.56.06-.84,0-.44-.26,1,0,.15a4.12,4.12,0,0,0,.15-.58c.07-.44-.25.59-.24.57a2.54,2.54,0,0,1,.16-.28c.22-.36-.81.86-.2.31-.17.16-.92.63-.35.32-1.14.61-.7.27-.28.17.75-.17-1.07,0-.25,0,1.14,0,2.27,0,3.42.09l2.7.14c.56,0,1.11.06,1.67.11l.55.05c.86.08-.72-.14,0,0,.41.09.81.15,1.21.25l.49.14c.55.16.18.38-.2-.11a2.61,2.61,0,0,0,.74.4c.5.19-.44-.19-.38-.3s.29.27.33.32c.38.49-.41-.75-.25-.34.06.13.18.28.25.4.52.82-.16-.73,0,.11.08.31.16.61.23.92a2.06,2.06,0,0,1,.07.4c-.08-.65-.1-.77-.05-.35,0,.11,0,.22,0,.34.2,2.13.15,4.28.15,6.42a3.75,3.75,0,0,0,7.5,0c0-3.82.42-8.41-1.62-11.83-2.15-3.59-6.5-4.19-10.3-4.4-2.78-.16-6.12-.79-8.82.12-3.62,1.23-4.31,4.86-4.36,8.24a79.33,79.33,0,0,0,1,15.4c.63,3.49,1.84,7.26,4.43,9.82a10.62,10.62,0,0,0,9.15,2.63c9.14-1.22,10.49-12.66,10.52-20a3.75,3.75,0,0,0-7.5,0Z" /><path d="M156.29,197.09c0,6.95,1.05,17.38,9.09,19.75a11.86,11.86,0,0,0,9-1.12c2.79-1.81,4.35-4.88,5.28-8,1.52-5.08,1.6-10.58,1.67-15.84,0-3.15.22-7.1-2.22-9.48-2.28-2.23-5.65-1.87-8.55-1.7-4,.24-9.09,0-12,3.29s-2.29,8.87-2.28,13.09a3.75,3.75,0,0,0,7.5,0c0-1.94,0-3.89,0-5.83,0-.38.05-.77.07-1.15.07-1-.13.51,0,0,.07-.29.11-.59.2-.89a3,3,0,0,0,.1-.32c.12-.52-.46.7-.13.31.11-.13.53-.92.11-.25-.53.85.2-.24.22-.16s-.9.71,0,.11c.45-.32.13.28-.35.13.1,0,.44-.16.53-.18a7.69,7.69,0,0,1,.79-.21l.67-.13c.51-.11-.11-.08-.26,0a3.64,3.64,0,0,1,1.24-.11c.56,0,1.11-.07,1.67-.1,1.41-.06,2.82-.18,4.23-.22.5,0,1,0,1.48,0,.91,0-.67-.21-.26,0,.18.07,1,.35.22,0s-.14-.06,0,0c-1.21-.86-.7-.58-.52-.39s.32.41-.08-.15-.08-.08,0,.09c.2.41-.23-.57-.24-.55s.11.29.13.39.1.51.16.75c.13.53-.09-1,0-.09.05.77.09,1.54.09,2.31,0,2.2-.06,4.41-.15,6.61-.06,1.25-.14,2.5-.28,3.74,0,.25,0,.5-.08.75.08-.7,0,.06,0,.23-.09.59-.2,1.17-.32,1.76-.17.82-.37,1.63-.62,2.44-.11.34-.24.68-.35,1s0,.6.08-.17a1.91,1.91,0,0,1-.26.56,12.33,12.33,0,0,1-.82,1.41c-.45.71.48-.48.11-.13-.19.17-.37.38-.54.56-.53.56-.33-.09.22-.13-.12,0-.38.26-.49.32s-.27.12-.39.2,1.12-.35.29-.13l-.79.19c-.56.17,1.19-.09.56-.07-.13,0-.25,0-.37,0-.73,0-1.51-.05-2.22,0-.18,0,1.18.26.46,0l-.52-.14c-.57-.14-.49-.48.23.13-.14-.11-.37-.17-.53-.27s-.86-.63-.26-.13-.14-.14-.27-.27-.34-.4-.53-.58c-.37-.36.28.3.28.36,0-.1-.24-.34-.3-.45a10.72,10.72,0,0,1-.54-.93c-.08-.15-.15-.32-.23-.47-.31-.62.26.81,0,.06s-.58-1.75-.78-2.66c-.13-.55-.22-1.11-.32-1.68,0-.14-.1-.72,0,0l-.12-1.07c-.14-1.51-.19-3-.19-4.53a3.75,3.75,0,0,0-7.5,0Z" /><path d="M90.65,170.22H159.4a25,25,0,0,0,25-25V114a25,25,0,0,0-25-25H90.65a25,25,0,0,0-25,25v31.25A25,25,0,0,0,90.65,170.22Zm57.57-60.74c1.5,0,2.73,2,2.73,4.51s-1.23,4.52-2.73,4.52-2.73-2-2.73-4.52S146.72,109.48,148.22,109.48Zm-3.49,29.34,2.06-1,14.52-7.13c1.72-.84,3.23,1.68,1.51,2.59l-1.94,1L150.1,140l11.28,5.24a1.51,1.51,0,0,1,.48,2.05,1.53,1.53,0,0,1-2,.54l-1.9-.81-13.23-5.65a1.44,1.44,0,0,1-.52-.52A1.51,1.51,0,0,1,144.73,138.82Zm-29.44-2.52,6.16-6.42.08-9.6-4.81-2.51a1.39,1.39,0,0,1-.25-2.31,1.21,1.21,0,0,1,1.49-.41l4.73,1.78,5-2.17.17-.11,0,0a1.5,1.5,0,0,1,1.5,2.59l-4.76,3,.1,9.53,7.14,7.54a1.53,1.53,0,1,1-2.21,2.12L123,132.69l-5.5,5.73a1.33,1.33,0,0,1-1.1.45A1.54,1.54,0,0,1,115.29,136.3Zm-14.73-26.82c1.51,0,2.73,2,2.73,4.51s-1.23,4.52-2.73,4.52-2.73-2-2.73-4.52S99.05,109.48,100.56,109.48ZM86.31,132.35c-1.73-.89-.21-3.43,1.51-2.59l0,0v0l.62.32,1.64.79,16.08,7.78a1.61,1.61,0,0,1,.52.52,1.5,1.5,0,0,1-.52,2.07l-2.32,1.2L87.34,151a1.5,1.5,0,0,1-1.51-2.59L88,147.22l13-7.29Z" /></symbol><symbol viewBox="0 0 256 256" id="icon-animeui-0"><path d="M174.85,72.19h-7l17.19-10a4.72,4.72,0,0,0,1.7-6.41,4.62,4.62,0,0,0-6.35-1.71L149.25,72.19h-46L69.19,52.5a4.69,4.69,0,0,0-4.69,8.12l20,11.57H74.85A31.25,31.25,0,0,0,43.6,103.44v62.5a31.25,31.25,0,0,0,31.25,31.25h100a31.25,31.25,0,0,0,31.25-31.25v-62.5A31.25,31.25,0,0,0,174.85,72.19Zm15.63,78.12a31.25,31.25,0,0,1-31.25,31.25H90.48a31.25,31.25,0,0,1-31.25-31.25V119.06A31.25,31.25,0,0,1,90.48,87.81h68.75a31.25,31.25,0,0,1,31.25,31.25Z" /><path d="M86,200.74c0,1.27,0,2.53-.14,3.79,0,.61-.1,1.21-.18,1.82.1-.78-.12.7-.17,1a21.08,21.08,0,0,1-.62,2.46,3.59,3.59,0,0,1-.4,1.14s.42-.85.11-.28c-.1.19-.18.38-.28.57s-.28.51-.43.76-.18.25-.26.38c-.27.46.21-.51.28-.35s-.93,1-1.06,1.09c-.36.38.88-.55.22-.18-.18.1-.36.2-.53.31-.58.37.06-.07.32-.11a3.92,3.92,0,0,0-.55.18l-.38.09c-.46.13-.78-.14.46-.05-.23,0-.48,0-.71,0s-.6,0-.9,0h-.52c-.83,0-.25-.07.22.06-.25-.07-.53-.12-.78-.18-.54-.14-.33-.46.34.16a3.62,3.62,0,0,0-.48-.25c-.09,0-.41-.32-.5-.32.29,0,.81.73.27.18l-.5-.5c-.07-.07-.12-.16-.19-.23-.43-.42.51.79.2.25s-.6-.93-.84-1.42l-.18-.37c-.35-.66.23.68.08.19s-.32-.83-.45-1.25c-.26-.8-.46-1.62-.64-2.44-.1-.48-.18-.95-.26-1.43,0-.28-.09-.57-.14-.85.1.68,0-.31-.05-.47-.27-2.5-.33-5-.4-7.53,0-1.89-.1-3.79,0-5.68,0-.34.05-.69.08-1,.07-1-.17.69,0-.13a6.85,6.85,0,0,0,.42-1.61c.14.49-.44.86-.16.41a1.65,1.65,0,0,0,.18-.32c.31-.68-.53.48-.17.21a2.83,2.83,0,0,0,.24-.25c.43-.38-.2.31-.39.29a3.06,3.06,0,0,0,.61-.36c-.14.38-1,.33-.41.18.13,0,.25-.08.38-.12l.66-.15c.94-.22-.9,0,.13,0l1.08-.06c.9,0,1.81,0,2.71,0l.79.06c.81.05-.66-.16.16,0,.42.09.85.17,1.27.3.19.06.38.15.57.2s-.76-.44-.08,0l.46.27c.58.29-.55-.6-.1-.09a2.52,2.52,0,0,0,.3.27c.63.54-.14-.16-.07-.15s.46.73.54.86.33.74.07.13,0,.13.08.26c.13.41.23.82.32,1.23s.19,1.59.1.5c0,.5.11,1,.14,1.5.15,2.35.11,4.7.11,7.05a3.75,3.75,0,0,0,7.5,0c0-4.22.37-9-1.2-13-1.79-4.56-5.78-6.52-10.48-6.89-3.48-.27-7.59-.24-10.35,2.19s-3,6.08-3,9.37a78.69,78.69,0,0,0,1,15.86c.63,3.49,1.84,7.26,4.43,9.82A10.62,10.62,0,0,0,83,220.73c9.14-1.22,10.49-12.66,10.52-20a3.75,3.75,0,0,0-7.5,0Z" /><path d="M156,200.74c0,7,1.06,17.39,9.1,19.76a11.86,11.86,0,0,0,9-1.12c2.78-1.81,4.35-4.88,5.28-8,1.54-5.13,1.59-10.67,1.68-16,.06-3.45.27-7.54-1.6-10.61s-5.5-3.95-8.95-4c-4.76-.07-10,.79-12.58,5.33-2.42,4.31-1.94,9.87-1.94,14.63a3.75,3.75,0,0,0,7.5,0c0-2.11,0-4.22.07-6.33,0-.47,0-.95.09-1.42s.16-1.18,0-.32a22.68,22.68,0,0,1,.52-2.31c.27-1-.33.5.07-.2.16-.26.33-.52.47-.79.29-.52-.14.3-.22.29a5.92,5.92,0,0,1,.72-.7c0,.21-.82.49-.08.11a3.44,3.44,0,0,0,.38-.22c.49-.35-.22.06-.28.1a3.81,3.81,0,0,1,1.17-.37c.17-.05.34-.08.51-.12s1-.15.34-.07.37,0,.4,0l.92-.05c.76,0,1.52,0,2.27,0l.87,0,.5,0c.42,0-1-.21-.25,0,.25.06.5.1.75.17s1,.25.28.07,0,.07.19.15c.5.19-.53-.59-.38-.3,0,.11.22.2.29.29.45.51-.46-.89-.12-.16.07.17.44.92.14.22s0,.14.08.32.14.59.2.88c.21,1-.05-.85,0,.23,0,.31.06.62.07.92.06.9.07,1.8.07,2.69q0,3.45-.17,6.9c-.06,1.25-.15,2.5-.28,3.74l-.09.75c.09-.7,0,.06,0,.23-.09.59-.2,1.17-.32,1.76-.17.82-.37,1.63-.62,2.43-.11.35-.24.69-.35,1s0,.6.08-.17a1.91,1.91,0,0,1-.26.56,15.22,15.22,0,0,1-.82,1.41c-.45.71.48-.48.1-.13-.18.17-.36.38-.53.56-.53.56-.33-.09.22-.13-.13,0-.39.26-.49.32s-.27.12-.39.2,1.12-.35.29-.13l-.79.19c-.56.17,1.19-.09.56-.07-.13,0-.25,0-.37,0-.73,0-1.51-.05-2.22,0-.18,0,1.18.26.46,0l-.52-.14c-.57-.14-.49-.48.23.13-.14-.11-.37-.17-.53-.27s-.86-.63-.26-.13-.14-.14-.27-.27-.34-.4-.53-.58c-.37-.36.28.3.28.36,0-.1-.24-.34-.31-.45a10.63,10.63,0,0,1-.53-.93c-.08-.15-.15-.32-.23-.47-.32-.62.26.81,0,.06s-.58-1.75-.78-2.66c-.13-.55-.22-1.11-.32-1.68,0-.14-.1-.72,0,0l-.12-1.07c-.14-1.51-.19-3-.2-4.54a3.79,3.79,0,0,0-3.75-3.75A3.83,3.83,0,0,0,156,200.74Z" /><path d="M158.3,95.91H91.4a24.13,24.13,0,0,0-24.33,23.87V149.6A24.12,24.12,0,0,0,91.4,173.46h66.9a24.12,24.12,0,0,0,24.33-23.86V119.78A24.13,24.13,0,0,0,158.3,95.91Z" style="fill:none;stroke:#000;stroke-miterlimit:10;stroke-width:6px" /><path d="M152.05,150.29c0,2.49-1.22,4.51-2.73,4.51s-2.73-2-2.73-4.51,1.23-4.52,2.73-4.52S152.05,147.79,152.05,150.29Zm-50.39-4.52c-1.5,0-2.73,2-2.73,4.52s1.23,4.51,2.73,4.51,2.73-2,2.73-4.51S103.17,145.77,101.66,145.77Z" /><path d="M144.94,125.74l14.92,7.67,2.16,1.11,1.51-2.59-16.09-7.78L145.15,123v2.59l16.58-8.56,2.32-1.2-1.51-2.59-15.41,8.64-2.19,1.23c-1.68.94-.17,3.53,1.52,2.59l15.4-8.64,2.19-1.23c1.69-1,.2-3.47-1.51-2.59L146,121.84l-2.32,1.2a1.51,1.51,0,0,0,0,2.59l16.08,7.78,2.3,1.11c1.72.84,3.24-1.7,1.51-2.59l-14.92-7.68-2.15-1.1C144.74,122.26,143.22,124.85,144.94,125.74Z" /><path d="M102.36,122.87,89,130l-1.94,1c-1.72.91-.21,3.43,1.51,2.59l14.52-7.13,2.06-1a1.51,1.51,0,0,0,0-2.59l-13.23-5.65-1.9-.81a1.54,1.54,0,0,0-2,.54A1.51,1.51,0,0,0,88.5,119l12.1,5.63,1.76.82a1.55,1.55,0,0,0,2-.54,1.51,1.51,0,0,0-.54-2l-12.09-5.63L90,116.42,88.5,119l13.24,5.65,1.89.81v-2.59L89.12,130l-2.06,1,1.51,2.59,13.36-7.12,1.94-1C105.57,124.55,104.06,122,102.36,122.87Z" /><path d="M132.72,146.37l-3.09-1.17c-1.08-.4-2.1-1-3.24-.6-2,.76-3.94,1.69-5.9,2.54l1.51,2.59c1.78-1.13,3.58-2.22,5.32-3.39a2,2,0,0,0,.94-2l0-3.39c0-2.27,0-4.56-.07-6.83a2.47,2.47,0,0,0-.89-1.72L125,130l-4.85-5.14L118,127l7.79,7.85a1.52,1.52,0,0,0,2.13,0l6.58-6.87c1.34-1.39-.78-3.52-2.12-2.12l-6.27,6.54a3.35,3.35,0,0,0-.77,2.69l0,5.58,0,4.24a1.48,1.48,0,0,0,.75,1.29l5.56,2.9c1.71.89,3.23-1.7,1.51-2.59l-5.56-2.9.74,1.3.1-11.12-.43,1.06,6.58-6.87c1.34-1.39-.78-3.52-2.12-2.12l-6.59,6.87h2.13l-7.8-7.85A1.5,1.5,0,0,0,118,127l7.58,8-.44-1.06.11,10.95.75-1.3-5.52,3.52a1.5,1.5,0,0,0,1.51,2.59l5.94-2.56-1.16.16,5.15,1.93c1.81.68,2.59-2.22.79-2.89Z" /></symbol><symbol viewBox="0 0 154.7 158.51" id="icon-aui-player"><title>aui-player</title><path d="M87.2,71.2a5.59,5.59,0,0,0,6.5,9.1l2.9-1.8,4.6,6.3a5.66,5.66,0,0,0,9.2-6.6l-4.1-5.7L149.2,46a5.59,5.59,0,0,0-5.9-9.5l-43.4,27L72.2,25.6h0A5.66,5.66,0,1,0,63,32.2L90,69.5l-2.2,1.3A6.13,6.13,0,0,0,87.2,71.2ZM58.9,170.6h0a11.1,11.1,0,1,0-11.1,11.1,11.14,11.14,0,0,0,11.1-11.1Zm93.5-11.1a11.1,11.1,0,1,0,11,11.2,11,11,0,0,0-11-11.2Z" transform="translate(-22.7 -23.19)" style="fill:#f96" /><path d="M42.1,58.8H158c12.9,0,19.4,6.5,19.4,19.4v75.1c0,12.9-6.5,19.4-19.4,19.4H42.1c-12.9,0-19.4-6.5-19.4-19.4V78.2C22.8,65.3,29.2,58.8,42.1,58.8Z" transform="translate(-22.7 -23.19)" style="fill:#fdde80" /><path d="M64,115.8c0,18.6,16.2,33.6,36.1,33.6s36.1-15,36.1-33.6S120,82.2,100.1,82.2,64,97.2,64,115.8Z" transform="translate(-22.7 -23.19)" style="fill:#fff" /><path d="M87.8,108.3c0-7,5.4-9.9,11.9-6.7l14,7.5a6.66,6.66,0,0,1,4.6,8.5,7.06,7.06,0,0,1-4.6,4.3l-14,7.5c-6.5,3.6-11.9.7-11.9-6.4Z" transform="translate(-22.7 -23.19)" style="fill:#fb813a" /></symbol><symbol aria-hidden="true" viewBox="0 0 16 16" class="octicon octicon-mark-github v-align-middle" id="icon-github">
    <path fill-rule="evenodd" d="M8 0C3.58 0 0 3.58 0 8c0 3.54 2.29 6.53 5.47 7.59.4.07.55-.17.55-.38 0-.19-.01-.82-.01-1.49-2.01.37-2.53-.49-2.69-.94-.09-.23-.48-.94-.82-1.13-.28-.15-.68-.52-.01-.53.63-.01 1.08.58 1.23.82.72 1.21 1.87.87 2.33.66.07-.52.28-.87.51-1.07-1.78-.2-3.64-.89-3.64-3.95 0-.87.31-1.59.82-2.15-.08-.2-.36-1.02.08-2.12 0 0 .67-.21 2.2.82.64-.18 1.32-.27 2-.27.68 0 1.36.09 2 .27 1.53-1.04 2.2-.82 2.2-.82.44 1.1.16 1.92.08 2.12.51.56.82 1.27.82 2.15 0 3.07-1.87 3.75-3.65 3.95.29.25.54.73.54 1.48 0 1.07-.01 1.93-.01 2.2 0 .21.15.46.55.38A8.013 8.013 0 0016 8c0-4.42-3.58-8-8-8z" />
</symbol><symbol viewBox="0 0 162.5 167.03" id="icon-logo"><path d="M175,67.1h-7L182.08,59a4.72,4.72,0,0,0,1.7-6.41,4.63,4.63,0,0,0-6.3-1.74l0,0-28,16.24h-46L78.17,52.57a4.69,4.69,0,0,0-4.69,8.12L84.67,67.1H75A31.25,31.25,0,0,0,43.77,98.35v62.5A31.25,31.25,0,0,0,75,192.1H175a31.25,31.25,0,0,0,31.25-31.25h0V98.35A31.25,31.25,0,0,0,175,67.1Zm15.63,78.12a31.25,31.25,0,0,1-31.25,31.25H90.65A31.25,31.25,0,0,1,59.4,145.22V114A31.25,31.25,0,0,1,90.65,82.72H159.4A31.25,31.25,0,0,1,190.65,114h0Z" transform="translate(-43.77 -50.23)" /><path d="M86.26,197.09c0,1.26,0,2.52-.14,3.78,0,.61-.1,1.22-.18,1.82.1-.78-.12.7-.17.95a23.25,23.25,0,0,1-.61,2.46,3.87,3.87,0,0,1-.41,1.14s.42-.85.11-.28c-.1.19-.18.38-.28.57s-.28.51-.43.76-.18.25-.25.38c-.28.46.2-.51.27-.35s-.93,1-1.06,1.09c-.36.38.88-.55.22-.18-.17.1-.36.2-.53.31-.58.37.06-.07.32-.11a3.92,3.92,0,0,0-.55.18l-.38.09c-.46.13-.78-.14.46,0-.22,0-.48,0-.71,0s-.6,0-.9,0h-.52c-.83,0-.25-.07.22.06-.25-.07-.52-.12-.78-.18-.54-.14-.33-.46.34.16a3.62,3.62,0,0,0-.48-.25c-.09-.05-.4-.32-.49-.32.28,0,.8.73.26.18l-.5-.5c-.06-.07-.12-.16-.19-.23-.43-.42.51.79.2.25s-.59-.93-.84-1.42l-.18-.37c-.35-.66.23.68.08.19s-.31-.83-.45-1.25c-.25-.8-.46-1.62-.63-2.44-.1-.48-.19-.95-.27-1.43,0-.28-.09-.57-.13-.85.09.68,0-.31-.05-.47-.28-2.48-.33-5-.41-7.47,0-1.69-.12-3.39,0-5.09,0-.28,0-.56.06-.84,0-.44-.26,1,0,.15a4.12,4.12,0,0,0,.15-.58c.07-.44-.25.59-.24.57a2.54,2.54,0,0,1,.16-.28c.22-.36-.81.86-.2.31-.17.16-.92.63-.35.32-1.14.61-.7.27-.28.17.75-.17-1.07,0-.25,0,1.14,0,2.27,0,3.42.09l2.7.14c.56,0,1.11.06,1.67.11l.55.05c.86.08-.72-.14,0,0,.41.09.81.15,1.21.25l.49.14c.55.16.18.38-.2-.11a2.61,2.61,0,0,0,.74.4c.5.19-.44-.19-.38-.3s.29.27.33.32c.38.49-.41-.75-.25-.34.06.13.18.28.25.4.52.82-.16-.73,0,.11.08.31.16.61.23.92a2.06,2.06,0,0,1,.07.4c-.08-.65-.1-.77-.05-.35,0,.11,0,.22,0,.34.2,2.13.15,4.28.15,6.42a3.75,3.75,0,0,0,7.5,0c0-3.82.42-8.41-1.62-11.83-2.15-3.59-6.5-4.19-10.3-4.4-2.78-.16-6.12-.79-8.82.12-3.62,1.23-4.31,4.86-4.36,8.24a79.33,79.33,0,0,0,1,15.4c.63,3.49,1.84,7.26,4.43,9.82a10.62,10.62,0,0,0,9.15,2.63c9.14-1.22,10.49-12.66,10.52-20a3.75,3.75,0,0,0-7.5,0Z" transform="translate(-43.77 -50.23)" /><path d="M156.29,197.09c0,6.95,1.05,17.38,9.09,19.75a11.86,11.86,0,0,0,9-1.12c2.79-1.81,4.35-4.88,5.28-8,1.52-5.08,1.6-10.58,1.67-15.84,0-3.15.22-7.1-2.22-9.48-2.28-2.23-5.65-1.87-8.55-1.7-4,.24-9.09,0-12,3.29s-2.29,8.87-2.28,13.09a3.75,3.75,0,0,0,7.5,0c0-1.94,0-3.89,0-5.83,0-.38.05-.77.07-1.15.07-1-.13.51,0,0,.07-.29.11-.59.2-.89a3,3,0,0,0,.1-.32c.12-.52-.46.7-.13.31.11-.13.53-.92.11-.25-.53.85.2-.24.22-.16s-.9.71,0,.11c.45-.32.13.28-.35.13.1,0,.44-.16.53-.18a7.69,7.69,0,0,1,.79-.21l.67-.13c.51-.11-.11-.08-.26,0a3.64,3.64,0,0,1,1.24-.11c.56,0,1.11-.07,1.67-.1,1.41-.06,2.82-.18,4.23-.22.5,0,1,0,1.48,0,.91,0-.67-.21-.26,0,.18.07,1,.35.22,0s-.14-.06,0,0c-1.21-.86-.7-.58-.52-.39s.32.41-.08-.15-.08-.08,0,.09c.2.41-.23-.57-.24-.55s.11.29.13.39.1.51.16.75c.13.53-.09-1,0-.09.05.77.09,1.54.09,2.31,0,2.2-.06,4.41-.15,6.61-.06,1.25-.14,2.5-.28,3.74,0,.25,0,.5-.08.75.08-.7,0,.06,0,.23-.09.59-.2,1.17-.32,1.76-.17.82-.37,1.63-.62,2.44-.11.34-.24.68-.35,1s0,.6.08-.17a1.91,1.91,0,0,1-.26.56,12.33,12.33,0,0,1-.82,1.41c-.45.71.48-.48.11-.13-.19.17-.37.38-.54.56-.53.56-.33-.09.22-.13-.12,0-.38.26-.49.32s-.27.12-.39.2,1.12-.35.29-.13l-.79.19c-.56.17,1.19-.09.56-.07-.13,0-.25,0-.37,0-.73,0-1.51-.05-2.22,0-.18,0,1.18.26.46,0l-.52-.14c-.57-.14-.49-.48.23.13-.14-.11-.37-.17-.53-.27s-.86-.63-.26-.13-.14-.14-.27-.27-.34-.4-.53-.58c-.37-.36.28.3.28.36,0-.1-.24-.34-.3-.45a10.72,10.72,0,0,1-.54-.93c-.08-.15-.15-.32-.23-.47-.31-.62.26.81,0,.06s-.58-1.75-.78-2.66c-.13-.55-.22-1.11-.32-1.68,0-.14-.1-.72,0,0l-.12-1.07c-.14-1.51-.19-3-.19-4.53a3.75,3.75,0,0,0-7.5,0Z" transform="translate(-43.77 -50.23)" /><path d="M90.65,170.22H159.4a25,25,0,0,0,25-25V114a25,25,0,0,0-25-25H90.65a25,25,0,0,0-25,25v31.25A25,25,0,0,0,90.65,170.22Zm57.57-60.74c1.5,0,2.73,2,2.73,4.51s-1.23,4.52-2.73,4.52-2.73-2-2.73-4.52S146.72,109.48,148.22,109.48Zm-3.49,29.34,2.06-1,14.52-7.13c1.72-.84,3.23,1.68,1.51,2.59l-1.94,1L150.1,140l11.28,5.24a1.51,1.51,0,0,1,.48,2.05,1.53,1.53,0,0,1-2,.54l-1.9-.81-13.23-5.65a1.44,1.44,0,0,1-.52-.52A1.51,1.51,0,0,1,144.73,138.82Zm-29.44-2.52,6.16-6.42.08-9.6-4.81-2.51a1.39,1.39,0,0,1-.25-2.31,1.21,1.21,0,0,1,1.49-.41l4.73,1.78,5-2.17.17-.11,0,0a1.5,1.5,0,0,1,1.5,2.59l-4.76,3,.1,9.53,7.14,7.54a1.53,1.53,0,1,1-2.21,2.12L123,132.69l-5.5,5.73a1.33,1.33,0,0,1-1.1.45A1.54,1.54,0,0,1,115.29,136.3Zm-14.73-26.82c1.51,0,2.73,2,2.73,4.51s-1.23,4.52-2.73,4.52-2.73-2-2.73-4.52S99.05,109.48,100.56,109.48ZM86.31,132.35c-1.73-.89-.21-3.43,1.51-2.59l0,0v0l.62.32,1.64.79,16.08,7.78a1.61,1.61,0,0,1,.52.52,1.5,1.5,0,0,1-.52,2.07l-2.32,1.2L87.34,151a1.5,1.5,0,0,1-1.51-2.59L88,147.22l13-7.29Z" transform="translate(-43.77 -50.23)" /></symbol><symbol viewBox="0 0 87.5 100" id="icon-vuetify"><defs><style>#icon-vuetify .cls-1{fill:#1697f6;}#icon-vuetify .cls-2{fill:#7bc6ff;}#icon-vuetify .cls-3{fill:#1867c0;}#icon-vuetify .cls-4{fill:#aeddff;}</style></defs><title>Artboard 46</title><polyline class="cls-1" points="43.75 0 23.31 0 43.75 48.32" /><polygon class="cls-2" points="43.75 62.5 43.75 100 0 14.58 22.92 14.58 43.75 62.5" /><polyline class="cls-3" points="43.75 0 64.19 0 43.75 48.32" /><polygon class="cls-4" points="64.58 14.58 87.5 14.58 43.75 100 43.75 62.5 64.58 14.58" /></symbol><symbol viewBox="0 0 175.81 71.36" id="icon-welcome"><path d="M99.81,120.44c43,0,77.18,1,77.18,2.16s-34.55,2.16-77.18,2.16-77.18-1-77.18-2.16,34.56-2.16,77.18-2.16" transform="translate(-12.52 -63.99)" style="fill:#f9f28b" /><path d="M108.2,89.79V86.47H91.83v33.34H108.2V116.5H95.1V89.79Z" transform="translate(-12.52 -63.99)" style="fill:#73d0f3" /><path d="M70.54,118V88.56H67.26v32.75H83.64V118Z" transform="translate(-12.52 -63.99)" style="fill:#ff8263" /><path d="M59.66,89.79V86.47H43.28v33.34H59.66V116.5H46.56V104.7h13.1v-3.32H46.56V89.79Z" transform="translate(-12.52 -63.99)" style="fill:#73d0f3" /><path d="M188.33,89.79V86.47H172v33.34h16.37V116.5h-13.1V104.7h13.1v-3.32h-13.1V89.79Z" transform="translate(-12.52 -63.99)" style="fill:#ff8263" /><path d="M161.09,88.66v.75l-8.82,8.83-8.63-8.63v-1h-3.27v32.65h3.27v-27l8.61,8.6,0,0,0,0,8.8-8.8v27.28h3.26V88.66Z" transform="translate(-12.52 -63.99)" style="fill:#73d0f3" /><path d="M59.56,64A2.05,2.05,0,1,1,57.51,66,2,2,0,0,1,59.56,64m-10,67.27a2,2,0,1,1,0,4.09h0a2,2,0,0,1,0-4.09M100.5,69.84a2,2,0,1,1,0,4.1h0a2,2,0,1,1,0-4.1m59.66,59.66a2.05,2.05,0,1,1-2,2.05,2,2,0,0,1,2-2.05m1.75-53.22a2,2,0,1,1,0,4.09h0a2,2,0,1,1,0-4.09m-25.15,36.84a2.05,2.05,0,1,1,0,4.1h0a2.05,2.05,0,0,1,0-4.1" transform="translate(-12.52 -63.99)" style="fill:#f9f28b" /><polygon points="102.56 25.4 102.56 55.33 117.95 55.33 118.07 25.4 102.56 25.4" style="fill:none;stroke:#f96;stroke-miterlimit:10;stroke-width:3px" /><polygon points="20.71 24.67 20.71 51.66 12.11 43.05 12.09 43.06 12.07 43.05 3.27 51.85 3.27 24.57 0 24.57 0 57.22 3.27 57.22 3.27 56.47 12.09 47.64 20.71 56.27 20.71 57.32 23.98 57.32 23.98 24.67 20.71 24.67" style="fill:#6fc" /></symbol></defs><use id="icon-anime-partition-usage" xlink:href="#icon-anime-partition" class="sprite-symbol-usage" /><use id="icon-animeui-usage" xlink:href="#icon-animeui" class="sprite-symbol-usage" /><use id="icon-animeui-0-usage" xlink:href="#icon-animeui-0" class="sprite-symbol-usage" /><use id="icon-aui-player-usage" xlink:href="#icon-aui-player" class="sprite-symbol-usage" /><use id="icon-github-usage" xlink:href="#icon-github" class="sprite-symbol-usage" /><use id="icon-logo-usage" xlink:href="#icon-logo" class="sprite-symbol-usage" /><use id="icon-vuetify-usage" xlink:href="#icon-vuetify" class="sprite-symbol-usage" /><use id="icon-welcome-usage" xlink:href="#icon-welcome" class="sprite-symbol-usage" /></svg>