<svg xmlns="http://www.w3.org/2000/svg" viewBox="0 0 256 256"><title>animeui-safari-pinned-tab</title><path d="M196.24,40.87h-9.55l19.19-11.44a6.79,6.79,0,0,0,2.32-9,6.2,6.2,0,0,0-8.6-2.45l-.07,0L161.3,40.87H98.51L64,20.39A6.3,6.3,0,0,0,55.36,23a6.73,6.73,0,0,0,2.28,8.81l15.28,9H59.74c-23.56,0-42.65,19.72-42.65,44.05V173c0,24.33,19.09,44.06,42.65,44.06h136.5c23.56,0,42.66-19.73,42.66-44.06h0V84.92C238.9,60.59,219.8,40.87,196.24,40.87ZM217.58,151c0,24.33-19.1,44-42.66,44H81.08c-23.56,0-42.66-19.72-42.66-44V106.94c0-24.33,19.1-44,42.66-44h93.84c23.56,0,42.66,19.72,42.66,44.05h0Z"/><path d="M76.48,220.47c0,1.48-.06,2.95-.2,4.42,0,.36-.07.71-.12,1.07.11-.85,0,.24-.06.34-.11.61-.23,1.23-.37,1.83-.24,1-.56,1.9-.89,2.84.38-1.06-.08.13-.21.39a13.84,13.84,0,0,1-.74,1.29c-.07.11-.16.21-.23.33-.36.62.61-.68.13-.16-.22.25-.42.5-.66.73s-.46.41-.67.62c-.44.47.81-.51.26-.2-.13.08-.25.18-.37.26a8.2,8.2,0,0,1-.76.43c-.45.23-.92.12.16,0-.46.07-1,.33-1.42.43l-.54.1c-.27.07,1.22-.09.29-.05-.33,0-.65,0-1,0l-1.22,0c-.27,0-.53,0-.8,0l-.43,0c-1-.05.92.2.24,0-.37-.09-.74-.15-1.11-.27a3.42,3.42,0,0,0-.61-.22c.72,0,.88.43.44.18l-.35-.18c-.24-.14-.47-.29-.7-.44-.72-.43.68.66,0,.05-.23-.22-.47-.43-.69-.66l-.23-.25-.23-.27c-.24-.29-.15-.18.25.33.06-.21-1.05-1.65-1.17-1.89s-.34-.69-.5-1c.48,1-.2-.6-.3-.9-.32-1-.58-2-.8-3-.14-.67-.25-1.35-.36-2-.19-1.15,0,.42,0-.29-.05-.46-.1-.91-.14-1.37-.27-2.78-.33-5.59-.41-8.39,0-1.62.1-3.22.09-4.83,0,1.29-.06.42.06,0,0-.11.07-.21.09-.32.07-.45.41.06-.23.5.06,0,.12-.23.16-.3.19-.3.43-.46-.35.41.58-.65-.36.19-.23.11.68-.45,0,.16-.33.08a2.48,2.48,0,0,0,.68-.19c.76-.25-1,0-.18,0,.38,0,.75,0,1.13,0,1.64,0,3.29.1,4.94.18,1.37.07,2.75.1,4.12.18.62,0,1.24.08,1.85.14l.84.1c-1.08-.12-.09,0,.15,0,.48.09,1,.19,1.44.32a6.76,6.76,0,0,0,1.13.37c-.28.15-.87-.45-.25-.08.16.09.33.21.5.29.58.29-.42,0-.31-.26l.45.42c.55.46-.38,0-.19-.29a2.53,2.53,0,0,0,.25.39,2.32,2.32,0,0,0,.22.41c.34.5-.29-1-.1-.21.09.38.22.74.3,1.12,0,.19.06.38.1.57.14.67-.07-.93,0-.18.13,2.38.19,4.73.19,7.11a3.75,3.75,0,0,0,7.5,0c0-4.11.45-9.07-1.8-12.74-2.49-4.08-7.58-4.71-11.92-5-2.4-.15-4.81-.23-7.2-.33a19.58,19.58,0,0,0-5.13.25c-3.92.91-5.24,4.39-5.45,8-.12,2.18,0,4.39.1,6.57a72.21,72.21,0,0,0,.94,10.28c.76,4.22,2.31,8.82,5.56,11.81,3.08,2.82,7.14,3.61,11.19,3.23a12.78,12.78,0,0,0,8.94-4.6c3.94-4.87,4.74-11.44,4.77-17.51a3.75,3.75,0,0,0-7.5,0Z"/><path d="M172.06,220.47c0,8.2,2,19.64,11.54,21.82,3.59.82,8.28.51,11.43-1.43,3.49-2.15,5.5-5.89,6.66-9.71,1.72-5.67,1.85-11.88,1.85-17.77,0-3.59-.26-7.9-3.74-9.9-3.13-1.8-7.37-1.07-10.79-.91-4.69.21-11.07-.15-14.47,3.79-3.23,3.75-2.48,9.53-2.48,14.11a3.75,3.75,0,0,0,7.5,0c0-2.14-.06-4.3.05-6.45,0-.36,0-.71.07-1.07,0-.59.29-.39,0,.21a2.53,2.53,0,0,0,.09-.55c.05-.29.13-.56.2-.84l.15-.46c.22.12-.56,1-.06.2a1.32,1.32,0,0,0,.16-.25c.29-.6.15.33-.24.29-.06,0,1.06-.86.26-.31-.65.44.27-.12.42-.22.56-.36.16.24-.26.09.09,0,.45-.16.53-.19a17.9,17.9,0,0,1,2.39-.53c-1.15.2.49,0,.78-.07.69-.06,1.38-.1,2.06-.13,2.12-.11,4.24-.2,6.36-.29.72,0,1.43-.05,2.14,0,.34,0,.68,0,1,0,1.13,0-.75-.21,0,0,.22.06.46.13.68.17.6.12-1-.53-.22-.06s-.77-.7-.25-.19-.57-1-.06,0c.36.68-.26-1-.09-.18,0,.26.13.52.2.78.24,1,0-.88,0,.11,0,.41.06.81.08,1.22.1,2.19,0,4.39-.09,6.59,0,1.51-.12,3-.26,4.54,0,.33-.07.66-.1,1,0,.17-.13,1,0,.31-.11.75-.23,1.49-.38,2.22a28.56,28.56,0,0,1-.78,3.06c-.15.5-.34,1-.52,1.48-.29.77.31-.58.05-.13-.12.23-.22.48-.34.72a11.32,11.32,0,0,0-1.15,1.88c-.06-.25.63-.74.14-.2l-.22.25c-.26.28-.53.52-.8.78-.63.61.77-.48.06,0l-.69.43a5.18,5.18,0,0,0-.58.28c.9-.67.63-.24.11-.07s-.78.19-1.17.28c-.72.17,1.19-.1.31,0l-.53,0c-1,.06-2,.09-3.07,0s.77.16.23,0c-.24,0-.48-.08-.72-.14l-.7-.2c-.12,0-.24-.1-.36-.13-.56-.16,1,.5.34.14a12.27,12.27,0,0,0-1.56-.93c.24-.09.78.69.26.19l-.43-.4c-.12-.12-.65-.85-.78-.86.25,0,.55.8.13.15l-.34-.5a13.13,13.13,0,0,1-.68-1.22c-.09-.17-.16-.35-.25-.52l.1.23a4.52,4.52,0,0,1-.18-.47c-.19-.5-.35-1-.5-1.53s-.32-1.25-.44-1.89l-.15-.79c0-.21-.07-.43-.1-.65.06.43.06.42,0,0-.17-1.71-.27-3.42-.28-5.14a3.78,3.78,0,0,0-3.75-3.75A3.82,3.82,0,0,0,172.06,220.47Z"/><path d="M81.07,186.23h93.85c18.84,0,34.12-15.77,34.12-35.24V106.94c0-19.46-15.28-35.24-34.12-35.24H81.07C62.22,71.7,47,87.48,47,106.94V151C47,170.46,62.22,186.23,81.07,186.23Zm78.58-85.62c2,0,3.73,2.81,3.73,6.36s-1.68,6.37-3.73,6.37-3.72-2.83-3.72-6.37S157.61,100.61,159.65,100.61ZM154.89,142l2.81-1.41,19.82-10.05c2.35-1.18,4.41,2.37,2.06,3.65l-2.64,1.41-14.72,8.11,15.4,7.4a2.16,2.16,0,0,1,.65,2.89,2.06,2.06,0,0,1-2.73.76L173,153.59l-18.06-8a2.16,2.16,0,0,1,0-3.65Zm-40.19-3.55,8.41-9.06.11-13.52-6.56-3.54a2,2,0,0,1-.34-3.27,1.62,1.62,0,0,1,2-.57l6.45,2.5,6.85-3,.24-.15,0,0a2,2,0,0,1,2.69.73,2.16,2.16,0,0,1-.63,2.92l-6.5,4.28.13,13.44,9.75,10.63a2.21,2.21,0,0,1-.06,3,2,2,0,0,1-3-.06l-9.1-9.47-7.51,8.09a1.78,1.78,0,0,1-1.5.63A2.18,2.18,0,0,1,114.7,138.42ZM94.6,100.61c2.06,0,3.72,2.82,3.72,6.36s-1.67,6.37-3.72,6.37-3.73-2.85-3.73-6.37S92.54,100.61,94.6,100.61ZM75.15,132.85c-2.36-1.25-.29-4.83,2.06-3.65l0,0v0l.84.45,2.25,1.11,22,11a2,2,0,0,1,.7.73,2.17,2.17,0,0,1-.7,2.92l-3.17,1.69L76.55,159.2a2.1,2.1,0,0,1-2.06-3.65l3-1.74,17.75-10.28Z"/></svg>